<?xml version="1.0" standalone="no"?>
<!DOCTYPE svg PUBLIC "-//W3C//DTD SVG 20010904//EN"
 "http://www.w3.org/TR/2001/REC-SVG-20010904/DTD/svg10.dtd">
<svg version="1.0" xmlns="http://www.w3.org/2000/svg"
 width="1000.000000pt" height="800.000000pt" viewBox="0 0 1000.000000 800.000000"
 preserveAspectRatio="xMidYMid meet">
<metadata>
Created by potrace 1.14, written by Peter Selinger 2001-2017
</metadata>
<g transform="translate(0.000000,800.000000) scale(0.100000,-0.100000)"
fill="#000000" stroke="none">
<path d="M755 7633 c3 -10 89 -160 189 -333 204 -351 598 -1030 755 -1302
l103 -178 530 0 530 0 -20 33 c-54 88 -502 866 -502 871 0 3 1078 6 2395 6
1317 0 2395 -2 2395 -4 0 -2 -115 -202 -255 -445 -140 -242 -255 -445 -255
-452 0 -9 57 -11 248 -6 136 4 373 7 527 7 l280 0 222 383 c538 930 796 1374
815 1405 l20 32 -3992 0 c-3798 0 -3992 -1 -3985 -17z"/>
<path d="M6196 5562 c-27 -75 -59 -165 -72 -199 l-23 -62 337 -208 c185 -114
339 -207 342 -206 3 0 20 45 39 98 l35 98 69 -7 c126 -12 222 -75 246 -163 15
-53 13 -148 -3 -210 -10 -39 -11 -55 -2 -61 6 -5 121 -78 256 -162 135 -84
280 -175 322 -201 l77 -49 35 73 c120 255 170 555 122 737 -75 282 -349 471
-781 539 -38 6 -254 34 -480 61 -225 28 -424 52 -440 55 l-30 5 -49 -138z"/>
<path d="M2020 5469 c-74 -114 -136 -211 -137 -216 -2 -4 21 -22 49 -39 29
-17 175 -103 323 -191 149 -88 280 -165 292 -172 20 -10 32 4 213 275 106 157
190 286 188 287 -3 2 -393 132 -683 227 l-110 36 -135 -207z"/>
<path d="M4508 5609 c-298 -43 -507 -202 -549 -417 -6 -36 -9 -90 -6 -125 7
-69 41 -180 61 -196 7 -6 152 -86 322 -177 1039 -560 1028 -555 1049 -546 27
13 210 150 263 198 l43 39 -172 135 c-95 74 -192 150 -216 169 l-43 34 -38
-26 c-53 -37 -92 -43 -154 -22 -117 37 -295 171 -332 249 -30 63 -20 118 25
141 80 42 257 -10 447 -131 29 -19 56 -34 60 -34 4 1 99 90 211 199 l205 197
-75 46 c-201 123 -372 192 -593 238 -177 37 -376 49 -508 29z"/>
<path d="M5950 5042 c0 -4 -65 -331 -145 -726 -80 -395 -145 -725 -145 -733 0
-23 1168 -13 1290 11 322 63 556 190 715 389 75 93 135 202 120 215 -11 10
-686 322 -696 322 -3 0 -9 -27 -12 -59 -17 -164 -116 -292 -260 -337 -59 -18
-257 -32 -257 -17 0 5 27 141 59 303 33 162 56 298 53 301 -6 6 -615 293 -689
325 -18 8 -33 11 -33 6z"/>
<path d="M1740 4957 c0 -1 -61 -309 -135 -682 -74 -374 -135 -685 -135 -692 0
-10 164 -13 828 -13 l828 0 53 278 c29 152 55 285 57 295 5 16 -19 17 -405 17
-226 0 -411 3 -411 6 0 4 27 146 61 316 33 171 59 311 57 313 -2 2 -172 37
-378 79 -206 42 -385 78 -397 81 -13 3 -23 4 -23 2z"/>
<path d="M3794 4594 c-249 -132 -396 -307 -425 -506 -36 -248 109 -436 392
-507 251 -64 507 -48 797 48 l112 38 43 -49 42 -49 404 3 404 3 -124 160
c-171 219 -209 270 -209 281 0 6 23 27 51 49 35 27 47 40 37 46 -28 15 -1427
519 -1441 519 -8 0 -46 -16 -83 -36z m510 -451 l107 -137 -53 -19 c-77 -28
-199 -28 -260 0 -56 25 -79 58 -80 110 0 52 21 92 78 142 77 67 84 64 208 -96z"/>
<path d="M3248 3328 c20 -34 186 -321 409 -708 196 -340 1073 -1852 1077
-1857 2 -2 -5 -14 401 687 164 283 476 821 693 1195 217 373 397 685 399 692
4 11 -97 13 -523 13 l-529 0 -220 -379 -219 -380 -37 62 c-20 34 -121 207
-224 385 l-187 322 -530 0 -530 0 20 -32z"/>
</g>
</svg>
